<?xml version="1.0" encoding="UTF-8"?>
<svg xmlns="http://www.w3.org/2000/svg" xmlns:xlink="http://www.w3.org/1999/xlink" width="199px" height="39px" viewBox="0 0 198 39" version="1.1">
<defs>
<linearGradient id="linear0" gradientUnits="userSpaceOnUse" x1="241.554672" y1="159.688599" x2="255.98056" y2="159.688599" gradientTransform="matrix(0.28034,0,0,0.79495,-42.274772,-101.265397)">
<stop offset="0" style="stop-color:rgb(95.294118%,95.686275%,95.686275%);stop-opacity:1;"/>
<stop offset="0.01" style="stop-color:rgb(95.294118%,95.686275%,95.686275%);stop-opacity:1;"/>
<stop offset="0.17" style="stop-color:rgb(86.666667%,86.27451%,85.882353%);stop-opacity:1;"/>
<stop offset="0.33" style="stop-color:rgb(78.039216%,77.254902%,76.078431%);stop-opacity:1;"/>
<stop offset="0.46" style="stop-color:rgb(54.901961%,53.72549%,52.156863%);stop-opacity:1;"/>
<stop offset="0.59" style="stop-color:rgb(34.901961%,34.901961%,32.941176%);stop-opacity:1;"/>
<stop offset="0.65" style="stop-color:rgb(29.803922%,29.803922%,27.843137%);stop-opacity:1;"/>
<stop offset="0.71" style="stop-color:rgb(25.098039%,25.098039%,23.137255%);stop-opacity:1;"/>
<stop offset="0.89" style="stop-color:rgb(10.196078%,11.764706%,8.627451%);stop-opacity:1;"/>
<stop offset="1" style="stop-color:rgb(0%,0.784314%,0%);stop-opacity:1;"/>
</linearGradient>
<linearGradient id="linear1" gradientUnits="userSpaceOnUse" x1="239.395767" y1="130.998764" x2="253.953964" y2="130.998764" gradientTransform="matrix(0.282868,0,0,0.787845,-42.274772,-101.265397)">
<stop offset="0" style="stop-color:rgb(95.294118%,95.686275%,95.686275%);stop-opacity:1;"/>
<stop offset="0.01" style="stop-color:rgb(95.294118%,95.686275%,95.686275%);stop-opacity:1;"/>
<stop offset="0.17" style="stop-color:rgb(86.666667%,86.27451%,85.882353%);stop-opacity:1;"/>
<stop offset="0.33" style="stop-color:rgb(78.039216%,77.254902%,76.078431%);stop-opacity:1;"/>
<stop offset="0.52" style="stop-color:rgb(54.901961%,53.72549%,52.156863%);stop-opacity:1;"/>
<stop offset="0.69" style="stop-color:rgb(34.901961%,34.901961%,32.941176%);stop-opacity:1;"/>
<stop offset="0.74" style="stop-color:rgb(29.803922%,29.803922%,27.843137%);stop-opacity:1;"/>
<stop offset="0.79" style="stop-color:rgb(25.098039%,25.098039%,23.137255%);stop-opacity:1;"/>
<stop offset="0.88" style="stop-color:rgb(18.823529%,18.823529%,16.862745%);stop-opacity:1;"/>
<stop offset="0.94" style="stop-color:rgb(11.372549%,11.764706%,9.803922%);stop-opacity:1;"/>
<stop offset="1" style="stop-color:rgb(11.372549%,11.764706%,9.803922%);stop-opacity:1;"/>
</linearGradient>
<linearGradient id="linear2" gradientUnits="userSpaceOnUse" x1="215.702652" y1="92.129349" x2="247.503967" y2="92.129349" gradientTransform="matrix(0.199363,0,0,1.117843,-42.274772,-101.265397)">
<stop offset="0" style="stop-color:rgb(95.294118%,95.686275%,95.686275%);stop-opacity:1;"/>
<stop offset="0.01" style="stop-color:rgb(95.294118%,95.686275%,95.686275%);stop-opacity:1;"/>
<stop offset="0.17" style="stop-color:rgb(86.666667%,86.27451%,85.882353%);stop-opacity:1;"/>
<stop offset="0.33" style="stop-color:rgb(78.039216%,77.254902%,76.078431%);stop-opacity:1;"/>
<stop offset="0.52" style="stop-color:rgb(54.901961%,53.72549%,52.156863%);stop-opacity:1;"/>
<stop offset="0.69" style="stop-color:rgb(34.901961%,34.901961%,32.941176%);stop-opacity:1;"/>
<stop offset="0.74" style="stop-color:rgb(29.803922%,29.803922%,27.843137%);stop-opacity:1;"/>
<stop offset="0.79" style="stop-color:rgb(25.098039%,25.098039%,23.137255%);stop-opacity:1;"/>
<stop offset="0.88" style="stop-color:rgb(18.823529%,18.823529%,16.862745%);stop-opacity:1;"/>
<stop offset="0.94" style="stop-color:rgb(11.372549%,11.764706%,9.803922%);stop-opacity:1;"/>
<stop offset="1" style="stop-color:rgb(11.372549%,11.764706%,9.803922%);stop-opacity:1;"/>
</linearGradient>
<linearGradient id="linear3" gradientUnits="userSpaceOnUse" x1="232.918106" y1="133.387756" x2="249.135574" y2="133.387756" gradientTransform="matrix(0.290735,0,0,0.766527,-42.274772,-101.265397)">
<stop offset="0" style="stop-color:rgb(71.372549%,70.980392%,69.803922%);stop-opacity:1;"/>
<stop offset="0.28" style="stop-color:rgb(85.882353%,85.098039%,84.313725%);stop-opacity:1;"/>
<stop offset="0.59" style="stop-color:rgb(100%,100%,100%);stop-opacity:1;"/>
<stop offset="0.98" style="stop-color:rgb(100%,100%,100%);stop-opacity:1;"/>
<stop offset="1" style="stop-color:rgb(100%,100%,100%);stop-opacity:1;"/>
</linearGradient>
<linearGradient id="linear4" gradientUnits="userSpaceOnUse" x1="80.702972" y1="244.477341" x2="169.492325" y2="244.477341" gradientTransform="matrix(0.532876,0,0,0.418214,-42.274772,-101.265397)">
<stop offset="0" style="stop-color:rgb(71.372549%,70.980392%,69.803922%);stop-opacity:1;"/>
<stop offset="0.28" style="stop-color:rgb(85.882353%,85.098039%,84.313725%);stop-opacity:1;"/>
<stop offset="0.59" style="stop-color:rgb(100%,100%,100%);stop-opacity:1;"/>
<stop offset="0.98" style="stop-color:rgb(100%,100%,100%);stop-opacity:1;"/>
<stop offset="1" style="stop-color:rgb(100%,100%,100%);stop-opacity:1;"/>
</linearGradient>
<linearGradient id="linear5" gradientUnits="userSpaceOnUse" x1="58.183983" y1="341.478027" x2="120.892578" y2="341.478027" gradientTransform="matrix(0.746676,0,0,0.298464,-42.274772,-101.265397)">
<stop offset="0" style="stop-color:rgb(71.372549%,70.980392%,69.803922%);stop-opacity:1;"/>
<stop offset="0.28" style="stop-color:rgb(85.882353%,85.098039%,84.313725%);stop-opacity:1;"/>
<stop offset="0.59" style="stop-color:rgb(100%,100%,100%);stop-opacity:1;"/>
<stop offset="0.98" style="stop-color:rgb(100%,100%,100%);stop-opacity:1;"/>
<stop offset="1" style="stop-color:rgb(100%,100%,100%);stop-opacity:1;"/>
</linearGradient>
<linearGradient id="linear6" gradientUnits="userSpaceOnUse" x1="58.178417" y1="405.360474" x2="120.886971" y2="405.360474" gradientTransform="matrix(0.746676,0,0,0.298464,-42.274772,-101.265397)">
<stop offset="0" style="stop-color:rgb(95.294118%,95.686275%,95.686275%);stop-opacity:1;"/>
<stop offset="0.01" style="stop-color:rgb(95.294118%,95.686275%,95.686275%);stop-opacity:1;"/>
<stop offset="0.17" style="stop-color:rgb(86.666667%,86.27451%,85.882353%);stop-opacity:1;"/>
<stop offset="0.33" style="stop-color:rgb(78.039216%,77.254902%,76.078431%);stop-opacity:1;"/>
<stop offset="0.48" style="stop-color:rgb(54.509804%,53.333333%,51.764706%);stop-opacity:1;"/>
<stop offset="0.63" style="stop-color:rgb(33.72549%,33.72549%,31.764706%);stop-opacity:1;"/>
<stop offset="0.68" style="stop-color:rgb(29.411765%,29.411765%,27.45098%);stop-opacity:1;"/>
<stop offset="0.74" style="stop-color:rgb(25.098039%,25.098039%,23.137255%);stop-opacity:1;"/>
<stop offset="0.9" style="stop-color:rgb(18.823529%,18.823529%,16.862745%);stop-opacity:1;"/>
<stop offset="1" style="stop-color:rgb(11.372549%,11.764706%,9.803922%);stop-opacity:1;"/>
</linearGradient>
</defs>
<g id="surface1">
<path style=" stroke:none;fill-rule:evenodd;fill:rgb(100%,100%,100%);fill-opacity:1;" d="M 139.070312 16.234375 L 126.460938 16.234375 L 126.460938 10.832031 L 141.339844 10.832031 C 141.488281 10.832031 141.617188 10.738281 141.667969 10.601562 L 143.792969 4.671875 C 143.875 4.445312 143.707031 4.207031 143.464844 4.207031 L 119.855469 4.207031 C 119.664062 4.207031 119.507812 4.363281 119.507812 4.554688 L 119.507812 34.535156 C 119.507812 34.726562 119.664062 34.882812 119.855469 34.882812 L 126.113281 34.882812 C 126.304688 34.882812 126.460938 34.726562 126.460938 34.535156 L 126.460938 22.855469 L 136.945312 22.855469 C 137.09375 22.855469 137.222656 22.765625 137.273438 22.625 L 139.398438 16.699219 C 139.480469 16.472656 139.3125 16.234375 139.070312 16.234375 Z M 139.070312 16.234375 "/>
<path style=" stroke:none;fill-rule:evenodd;fill:rgb(100%,100%,100%);fill-opacity:1;" d="M 115.65625 4.207031 L 92.046875 4.207031 C 91.855469 4.207031 91.699219 4.363281 91.699219 4.554688 L 91.699219 34.535156 C 91.699219 34.726562 91.855469 34.882812 92.046875 34.882812 L 114.234375 34.882812 C 114.429688 34.882812 114.582031 34.726562 114.582031 34.535156 L 114.582031 28.609375 C 114.582031 28.414062 114.429688 28.261719 114.234375 28.261719 L 98.652344 28.261719 L 98.652344 22.855469 L 109.128906 22.855469 C 109.273438 22.855469 109.40625 22.765625 109.453125 22.625 L 111.578125 16.699219 C 111.660156 16.472656 111.492188 16.234375 111.253906 16.234375 L 98.652344 16.234375 L 98.652344 10.832031 L 113.53125 10.832031 C 113.675781 10.832031 113.808594 10.738281 113.855469 10.601562 L 115.984375 4.671875 C 116.0625 4.445312 115.894531 4.207031 115.65625 4.207031 Z M 115.65625 4.207031 "/>
<path style=" stroke:none;fill-rule:evenodd;fill:rgb(100%,100%,100%);fill-opacity:1;" d="M 155.84375 4.207031 C 152.324219 4.207031 149.183594 6.421875 147.996094 9.742188 L 139.144531 34.417969 C 139.0625 34.644531 139.230469 34.882812 139.472656 34.882812 L 145.75 34.882812 C 145.898438 34.882812 146.027344 34.789062 146.078125 34.652344 L 148.699219 27.308594 C 148.722656 27.308594 148.746094 27.308594 148.769531 27.308594 L 160.53125 27.308594 L 160.53125 34.535156 C 160.53125 34.726562 160.683594 34.882812 160.878906 34.882812 L 167.136719 34.882812 C 167.328125 34.882812 167.484375 34.726562 167.484375 34.535156 L 167.484375 4.554688 C 167.484375 4.363281 167.328125 4.207031 167.136719 4.207031 Z M 160.53125 14.632812 L 160.53125 20.6875 L 151.058594 20.6875 L 153.914062 12.679688 C 154.308594 11.570312 155.355469 10.832031 156.53125 10.832031 L 160.53125 10.832031 Z M 160.53125 14.632812 "/>
<path style=" stroke:none;fill-rule:evenodd;fill:rgb(10.588235%,9.803922%,9.411765%);fill-opacity:1;" d="M 33.164062 39.066406 C 30.503906 39.066406 27.65625 38.863281 26.066406 38.726562 C 25.351562 38.664062 24.804688 38.066406 24.804688 37.347656 L 24.808594 26.308594 L 21.710938 26.308594 C 21.578125 26.308594 21.460938 26.390625 21.417969 26.515625 L 17.414062 37.523438 C 17.167969 38.203125 16.546875 38.675781 15.824219 38.730469 C 14.140625 38.855469 10.96875 39.066406 8.417969 39.066406 C 5.765625 39.066406 2.9375 38.863281 1.355469 38.726562 C 0.640625 38.664062 0.09375 38.066406 0.09375 37.347656 L 0.0976562 1.742188 C 0.0976562 1.023438 0.644531 0.425781 1.359375 0.363281 C 2.941406 0.226562 5.765625 0.0234375 8.417969 0.0234375 C 10.96875 0.0234375 14.140625 0.234375 15.824219 0.359375 C 16.546875 0.414062 17.167969 0.886719 17.414062 1.570312 L 21.417969 12.574219 C 21.460938 12.699219 21.578125 12.78125 21.710938 12.78125 L 24.808594 12.78125 L 24.808594 1.742188 C 24.808594 1.023438 25.355469 0.425781 26.070312 0.363281 C 27.660156 0.226562 30.5 0.0234375 33.152344 0.0234375 L 33.179688 0.0234375 C 35.722656 0.0234375 38.851562 0.234375 40.519531 0.359375 C 41.238281 0.414062 41.859375 0.886719 42.105469 1.566406 L 48.546875 19.21875 C 48.621094 19.429688 48.621094 19.660156 48.546875 19.871094 L 42.105469 37.523438 C 41.859375 38.203125 41.238281 38.675781 40.519531 38.730469 C 38.851562 38.859375 35.722656 39.066406 33.179688 39.066406 Z M 33.164062 39.066406 "/>
<path style=" stroke:none;fill-rule:nonzero;fill:url(#linear0);" d="M 29.46875 26.101562 C 29.542969 25.894531 29.390625 25.679688 29.171875 25.679688 L 25.441406 25.679688 L 25.441406 37.148438 Z M 29.46875 26.101562 "/>
<path style=" stroke:none;fill-rule:nonzero;fill:url(#linear1);" d="M 25.441406 1.941406 L 25.441406 13.410156 L 29.246094 13.410156 C 29.464844 13.410156 29.617188 13.191406 29.539062 12.984375 Z M 25.441406 1.941406 "/>
<path style=" stroke:none;fill-rule:nonzero;fill:url(#linear2);" d="M 6.992188 19.976562 C 7.09375 19.699219 7.09375 19.390625 6.992188 19.113281 L 0.796875 2.117188 C 0.753906 2 0.734375 1.878906 0.734375 1.757812 C 0.734375 1.746094 0.734375 1.738281 0.738281 1.726562 L 0.734375 1.722656 L 0.726562 37.269531 L 0.734375 37.257812 C 0.738281 37.171875 0.757812 37.085938 0.785156 37.003906 Z M 6.992188 19.976562 "/>
<path style=" stroke:none;fill-rule:nonzero;fill:url(#linear3);" d="M 29.539062 12.984375 C 29.617188 13.191406 29.464844 13.410156 29.246094 13.410156 L 29.84375 13.410156 C 30.0625 13.410156 30.214844 13.195312 30.136719 12.988281 L 25.902344 1.402344 C 25.832031 1.207031 25.960938 1 26.167969 0.980469 C 25.757812 1.019531 25.441406 1.363281 25.441406 1.777344 L 25.441406 1.855469 C 25.441406 1.914062 25.453125 1.96875 25.472656 2.023438 Z M 29.539062 12.984375 "/>
<path style=" stroke:none;fill-rule:nonzero;fill:url(#linear4);" d="M 47.738281 19.238281 L 8.570312 19.238281 C 8.039062 19.238281 7.570312 18.90625 7.386719 18.410156 L 1.1875 1.398438 C 1.117188 1.207031 1.25 0.996094 1.457031 0.980469 C 1.449219 0.980469 1.445312 0.980469 1.441406 0.980469 C 1.050781 1.015625 0.75 1.335938 0.738281 1.726562 C 0.734375 1.738281 0.734375 1.746094 0.734375 1.757812 C 0.734375 1.878906 0.753906 2 0.796875 2.117188 L 6.992188 19.113281 C 7.09375 19.390625 7.09375 19.699219 6.992188 19.976562 L 0.785156 37.003906 C 0.757812 37.085938 0.738281 37.171875 0.734375 37.257812 C 0.726562 37.363281 0.730469 37.46875 0.761719 37.578125 C 0.839844 37.878906 1.121094 38.082031 1.429688 38.109375 C 1.4375 38.109375 1.445312 38.109375 1.453125 38.113281 C 1.246094 38.09375 1.113281 37.882812 1.183594 37.691406 L 7.386719 20.679688 C 7.570312 20.183594 8.039062 19.851562 8.570312 19.851562 L 47.738281 19.851562 C 47.90625 19.851562 48.042969 19.714844 48.042969 19.546875 C 48.042969 19.375 47.90625 19.238281 47.738281 19.238281 Z M 47.738281 19.238281 "/>
<path style=" stroke:none;fill-rule:nonzero;fill:url(#linear5);" d="M 47.992188 19.371094 L 47.988281 19.371094 C 47.976562 19.355469 47.960938 19.339844 47.949219 19.328125 L 47.933594 19.3125 C 47.878906 19.265625 47.816406 19.238281 47.742188 19.238281 L 8.574219 19.238281 C 8.042969 19.234375 7.574219 18.90625 7.390625 18.40625 L 1.1875 1.398438 C 1.136719 1.253906 1.195312 1.101562 1.316406 1.023438 C 1.355469 1 1.402344 0.984375 1.457031 0.980469 C 1.457031 0.980469 1.457031 0.976562 1.457031 0.976562 C 2.726562 0.867188 5.507812 0.652344 8.429688 0.652344 C 11.085938 0.652344 14.164062 0.859375 15.660156 0.972656 C 16.210938 1.015625 16.691406 1.378906 16.878906 1.902344 L 21.058594 13.402344 L 29.839844 13.410156 C 30.058594 13.410156 30.207031 13.195312 30.132812 12.988281 L 25.902344 1.402344 C 25.859375 1.277344 25.894531 1.152344 25.976562 1.070312 C 25.984375 1.0625 25.992188 1.054688 26 1.050781 C 26.011719 1.039062 26.019531 1.03125 26.03125 1.023438 C 26.070312 1 26.117188 0.984375 26.167969 0.980469 C 27.445312 0.867188 30.242188 0.652344 33.164062 0.652344 C 33.164062 0.652344 33.171875 0.652344 33.175781 0.652344 C 33.179688 0.652344 33.183594 0.652344 33.1875 0.652344 C 33.1875 0.652344 33.1875 0.652344 33.191406 0.652344 C 35.847656 0.652344 38.851562 0.859375 40.347656 0.972656 C 40.902344 1.015625 41.378906 1.378906 41.566406 1.902344 Z M 47.992188 19.371094 "/>
<path style=" stroke:none;fill-rule:nonzero;fill:url(#linear6);" d="M 47.988281 19.71875 L 47.980469 19.71875 C 47.972656 19.734375 47.957031 19.75 47.945312 19.761719 L 47.925781 19.777344 C 47.875 19.824219 47.8125 19.851562 47.738281 19.851562 L 8.570312 19.851562 C 8.039062 19.855469 7.570312 20.1875 7.386719 20.683594 L 1.183594 37.691406 C 1.132812 37.835938 1.191406 37.988281 1.3125 38.066406 C 1.351562 38.089844 1.398438 38.105469 1.453125 38.113281 L 1.449219 38.113281 C 1.453125 38.113281 1.453125 38.113281 1.453125 38.113281 C 2.722656 38.222656 5.503906 38.4375 8.425781 38.4375 C 11.082031 38.4375 14.160156 38.230469 15.65625 38.117188 C 16.207031 38.074219 16.683594 37.710938 16.875 37.1875 L 21.054688 25.6875 L 29.835938 25.679688 C 30.054688 25.679688 30.203125 25.894531 30.128906 26.101562 L 25.898438 37.691406 C 25.855469 37.8125 25.886719 37.9375 25.972656 38.019531 C 25.980469 38.027344 25.988281 38.035156 25.996094 38.039062 C 26.003906 38.050781 26.015625 38.058594 26.027344 38.066406 C 26.066406 38.089844 26.113281 38.105469 26.164062 38.113281 C 27.441406 38.222656 30.238281 38.4375 33.160156 38.4375 C 33.160156 38.4375 33.167969 38.4375 33.171875 38.4375 C 33.175781 38.4375 33.179688 38.4375 33.183594 38.4375 C 33.183594 38.4375 33.183594 38.4375 33.1875 38.4375 C 35.84375 38.4375 38.847656 38.230469 40.34375 38.117188 C 40.898438 38.074219 41.375 37.710938 41.5625 37.1875 Z M 47.988281 19.71875 "/>
<path style=" stroke:none;fill-rule:evenodd;fill:rgb(100%,100%,100%);fill-opacity:1;" d="M 85.789062 4.207031 L 79.53125 4.207031 C 79.339844 4.207031 79.183594 4.363281 79.183594 4.554688 C 79.183594 4.554688 79.1875 26.398438 79.1875 26.988281 C 79.1875 27.570312 79.3125 28.242188 79.3125 28.242188 L 79.0625 28.242188 L 70.90625 5.597656 C 70.609375 4.765625 69.824219 4.207031 68.941406 4.207031 L 60.0625 4.207031 C 59.871094 4.207031 59.714844 4.363281 59.714844 4.554688 L 59.714844 34.535156 C 59.714844 34.726562 59.871094 34.882812 60.0625 34.882812 L 66.320312 34.882812 C 66.511719 34.882812 66.667969 34.726562 66.667969 34.535156 L 66.667969 14.347656 C 66.65625 13.785156 66.546875 13.183594 66.546875 13.183594 L 66.792969 13.183594 L 74.082031 33.496094 C 74.378906 34.328125 75.167969 34.882812 76.046875 34.882812 L 85.789062 34.882812 C 85.980469 34.882812 86.136719 34.726562 86.136719 34.535156 L 86.136719 4.554688 C 86.136719 4.363281 85.980469 4.207031 85.789062 4.207031 Z M 85.789062 4.207031 "/>
<path style=" stroke:none;fill-rule:evenodd;fill:rgb(100%,100%,100%);fill-opacity:1;" d="M 197.050781 28.261719 L 179.9375 28.261719 C 179.40625 28.28125 178.878906 28.378906 178.878906 28.378906 L 178.878906 28.261719 L 196.449219 14.203125 C 196.613281 14.070312 196.710938 13.867188 196.710938 13.65625 L 196.710938 6.335938 C 196.707031 5.179688 195.773438 4.246094 194.625 4.246094 L 173.390625 4.246094 C 173.199219 4.246094 173.042969 4.402344 173.042969 4.597656 L 173.042969 10.523438 C 173.042969 10.714844 173.199219 10.871094 173.390625 10.871094 L 188.824219 10.871094 C 189.410156 10.871094 190.074219 10.746094 190.074219 10.746094 L 190.074219 10.867188 L 172.609375 24.914062 C 172.445312 25.046875 172.347656 25.246094 172.347656 25.457031 L 172.347656 32.792969 C 172.347656 33.945312 173.285156 34.882812 174.433594 34.882812 L 197.050781 34.882812 C 197.246094 34.882812 197.398438 34.726562 197.398438 34.535156 L 197.398438 28.609375 C 197.398438 28.414062 197.246094 28.261719 197.050781 28.261719 Z M 197.050781 28.261719 "/>
</g>
</svg>
