<?xml version="1.0" encoding="UTF-8" standalone="no"?>
<!-- Uploaded to: SVG Repo, www.svgrepo.com, Generator: SVG Repo Mixer Tools -->

<svg
   width="800px"
   height="800px"
   viewBox="0 0 20 20"
   version="1.1"
   id="svg1"
   sodipodi:docname="profile.svg"
   inkscape:version="1.4.2 (f4327f4, 2025-05-13)"
   xmlns:inkscape="http://www.inkscape.org/namespaces/inkscape"
   xmlns:sodipodi="http://sodipodi.sourceforge.net/DTD/sodipodi-0.dtd"
   xmlns="http://www.w3.org/2000/svg"
   xmlns:svg="http://www.w3.org/2000/svg">
  <sodipodi:namedview
     id="namedview1"
     pagecolor="#ffffff"
     bordercolor="#000000"
     borderopacity="0.25"
     inkscape:showpageshadow="2"
     inkscape:pageopacity="0.0"
     inkscape:pagecheckerboard="0"
     inkscape:deskcolor="#d1d1d1"
     inkscape:zoom="1.06875"
     inkscape:cx="400.46784"
     inkscape:cy="400"
     inkscape:window-width="1920"
     inkscape:window-height="1057"
     inkscape:window-x="-8"
     inkscape:window-y="-8"
     inkscape:window-maximized="1"
     inkscape:current-layer="svg1" />
  <title
     id="title1">profile [#1336]</title>
  <desc
     id="desc1">Created with Sketch.</desc>
  <defs
     id="defs1" />
  <g
     id="Page-1"
     stroke="none"
     stroke-width="1"
     fill="none"
     fill-rule="evenodd"
     style="fill:#ffffff;fill-opacity:1">
    <g
       id="Dribbble-Light-Preview"
       transform="translate(-380.000000, -2159.000000)"
       fill="#000000"
       style="fill:#ffffff;fill-opacity:1">
      <g
         id="icons"
         transform="translate(56.000000, 160.000000)"
         style="fill:#ffffff;fill-opacity:1">
        <path
           d="M334,2011 C337.785,2011 340.958,2013.214 341.784,2017 L326.216,2017 C327.042,2013.214 330.215,2011 334,2011 M330,2005 C330,2002.794 331.794,2001 334,2001 C336.206,2001 338,2002.794 338,2005 C338,2007.206 336.206,2009 334,2009 C331.794,2009 330,2007.206 330,2005 M337.758,2009.673 C339.124,2008.574 340,2006.89 340,2005 C340,2001.686 337.314,1999 334,1999 C330.686,1999 328,2001.686 328,2005 C328,2006.89 328.876,2008.574 330.242,2009.673 C326.583,2011.048 324,2014.445 324,2019 L344,2019 C344,2014.445 341.417,2011.048 337.758,2009.673"
           id="profile-[#1336]"
           style="fill:#ffffff;fill-opacity:1" />
      </g>
    </g>
  </g>
</svg>
